<svg width="100" height="77" viewBox="0 0 26.46 20.37" xml:space="preserve" xmlns="http://www.w3.org/2000/svg"><g transform="translate(-.4 -4.61) scale(1.02442)"><path style="fill:none;stroke:#333;stroke-width:.463021;stroke-linecap:round;stroke-dasharray:none" d="m24.1 14.14.79.05c.4 0 .76-.32.83-.7.18-.87.23-2.3-.02-2.83-.26-.53-.46-.47-.67-.48-.33-.01-.87.09-.87.09"/><circle style="fill:none;stroke:#333;stroke-width:.463021;stroke-dasharray:none" cx="17.35" cy="12.22" r="5.85"/><circle style="fill:none;stroke:#333;stroke-width:.463021;stroke-dasharray:none" cx="14.39" cy="12.16" r="1"/><circle style="fill:none;stroke:#333;stroke-width:.463021;stroke-dasharray:none" cx="20.22" cy="12.17" r="1"/><path style="fill:none;stroke:#333;stroke-width:.463021;stroke-linecap:round;stroke-dasharray:none" d="M16.74 13.91c.32.2.96.2 1.3-.01"/><path style="fill:none;stroke:#333;stroke-width:.396875;stroke-linecap:round;stroke-dasharray:none" d="M13.48 9.21c.08-.11.27-.32.37-.37M14.47 8.32l.14-.13"/><circle style="fill:none;stroke:#333;stroke-width:.463021;stroke-linecap:round;stroke-dasharray:none" cx="17.37" cy="12.22" r="6.87"/><path style="fill:none;stroke:#333;stroke-width:.463021;stroke-linecap:round;stroke-dasharray:none" d="M10.8 14.26s-.53.05-.8.05c-.4.01-.75-.31-.82-.7-.18-.86-.23-2.3.02-2.83.26-.52.46-.47.67-.48.33 0 .87.1.87.1"/><path style="fill:#333;fill-opacity:1;stroke:#333;stroke-width:.105833;stroke-linecap:round;stroke-linejoin:round;stroke-dasharray:none" d="M24.83 5.66c.08-.42.1-.43.4-.65-.39-.03-.41-.05-.63-.36-.02.4-.07.42-.37.63.38.03.43.06.6.38z"/><path style="fill:none;fill-opacity:1;stroke:#333;stroke-width:.463021;stroke-linecap:round;stroke-linejoin:round;stroke-dasharray:none" d="M22.18 23.95s.11-2.6.08-3.85c0-.36-.25-.7-.46-.98-.24-.32-.9-.79-.9-.79M12.5 23.95s-.11-2.6-.09-3.86c.01-.36.25-.69.47-.98.24-.31.89-.78.89-.78"/><path style="fill:none;fill-opacity:1;stroke:#333;stroke-width:.132292;stroke-linecap:round;stroke-linejoin:round;stroke-dasharray:none" d="M20.36 20.56a.3.3 0 0 1-.18.28.3.3 0 0 1-.33-.07.3.3 0 0 1-.06-.32.3.3 0 0 1 .28-.19v.3z"/><path style="fill:#333;fill-opacity:1;stroke:#333;stroke-width:.132292;stroke-linecap:round;stroke-linejoin:round;stroke-dasharray:none" d="M16.08 21.75h.47v1.67h-.47zM18.29 21.76h.47v1.67h-.47z"/><path style="fill:none;fill-opacity:1;stroke:#333;stroke-width:.463021;stroke-linecap:round;stroke-linejoin:round;stroke-dasharray:none" d="M22.24 20.02c.72.17 2.18 2.6 2.64 3.94M22.28 22.63l.66 1.41M22.24 22.37l1.16-.93M13.03 18.8c-3.24-.9-6.52-2.22-8.2-3.83l-.75.79c.35 1.19 4.52 3.92 8.23 4.76"/><path style="fill:none;fill-opacity:1;stroke:#333;stroke-width:.463021;stroke-linecap:round;stroke-linejoin:round;stroke-dasharray:none" d="M7.64 18.63c.2-.4.47-.92 1.03-1.3l-.05.05M8.66 19.2c.43-.51.49-.9.56-1.36"/><path style="fill:none;fill-opacity:1;stroke:#333;stroke-width:.330729;stroke-linecap:round;stroke-linejoin:round;stroke-dasharray:none" d="M6.75 24c-1.09-.55-3.61-6.6-2.32-10.6l-1.08.03c-.37 4.76.75 7.96 2.36 10.64"/><path style="fill:none;fill-opacity:1;stroke:#333;stroke-width:.330729;stroke-linecap:round;stroke-linejoin:round;stroke-dasharray:none" d="M2.83 12.72h2.04v.69H2.83zM4.82 12.72s.4 0 .59-.05c.3-.08.54-.2.69-.47.15-.3.05-1.93.05-1.93M2.67 12.73s-.4.01-.59-.05c-.3-.08-.55-.19-.69-.47-.15-.3-.05-1.93-.05-1.93"/><path style="fill:none;fill-opacity:1;stroke:#333;stroke-width:.330729;stroke-linecap:round;stroke-linejoin:round;stroke-dasharray:none" d="M.9 10.28h5.67c.25 0 .35-.68 0-.68L.9 9.57c-.24.01-.25.71 0 .7zM2.02 9.51V8.43c0-.2 0-.2.28-.2.27 0 .23 0 .23.22l-.01 1.07M4.82 9.52V8.43c0-.2.01-.2.28-.2s.23 0 .24.22l-.02 1.07M3.22 12.14h1.14M2.62 11.56l2.24.04M2.15 10.97l3.26.05"/><circle style="fill:#333;fill-opacity:1;stroke:#333;stroke-width:.353148;stroke-linecap:round;stroke-linejoin:round;stroke-dasharray:none" cx="3.65" cy="14.92" r=".79"/><ellipse style="fill:#333;fill-opacity:1;stroke:#333;stroke-width:.613425;stroke-linecap:round;stroke-linejoin:round;stroke-dasharray:none" cx="-6.33" cy="11.5" rx=".15" ry=".34" transform="matrix(.4579 -.889 .6448 .76435 0 0)"/><path style="fill:#333;fill-opacity:1;stroke:#333;stroke-width:.397665;stroke-linecap:round;stroke-linejoin:round;stroke-dasharray:none" d="m4.73 14.97-.3-.29"/></g></svg>